<svg id="Componente_2_21" data-name="Componente 2 – 21" xmlns="http://www.w3.org/2000/svg" width="225.984" height="202.504" viewBox="0 0 225.984 202.504">
  <g id="imagem">
    <g id="Caminho_1" data-name="Caminho 1" fill="none">
      <path d="M0,0H225.984V202.5H0Z" stroke="none"/>
      <path d="M 0.9999847412109375 1 L 0.9999847412109375 201.5038146972656 L 224.9843597412109 201.5038146972656 L 224.9843597412109 1 L 0.9999847412109375 1 M -1.52587890625e-05 0 L 225.9843597412109 0 L 225.9843597412109 202.5038146972656 L -1.52587890625e-05 202.5038146972656 L -1.52587890625e-05 0 Z" stroke="none" fill="#fff"/>
    </g>
  </g>
  <g id="economizar" transform="translate(57.182 28.258)">
    <path id="Caminho_4" data-name="Caminho 4" d="M104.008,148.822a28.33,28.33,0,1,0,28.33-28.33A28.33,28.33,0,0,0,104.008,148.822Zm28.33,1.79a9.309,9.309,0,0,1-2.364-18.327V129.89a1.963,1.963,0,1,1,3.927,0v2.276a9.217,9.217,0,0,1,7.678,9.146,1.94,1.94,0,0,1-3.881,0,5.369,5.369,0,1,0-5.362,5.374,9.295,9.295,0,0,1,1.565,18.448v2.34a1.963,1.963,0,1,1-3.927,0v-2.461a9.4,9.4,0,0,1-7-9.026,1.986,1.986,0,0,1,3.973,0,5.386,5.386,0,0,0,4.8,5.341,2.047,2.047,0,0,1,.307-.025,1.98,1.98,0,0,1,.439.05,5.372,5.372,0,0,0-.156-10.741Zm0,0" transform="translate(-74.578 -96.557)" fill="#fff"/>
    <path id="Caminho_5" data-name="Caminho 5" d="M149.2,357.1l-.046.023-18.225,8.61a14.085,14.085,0,0,1,.254,3.063,1.962,1.962,0,0,1-1.961,1.91h-.056l-26.674-.734a1.964,1.964,0,0,1,.107-3.927l24.519.675a10.123,10.123,0,0,0-9.683-8.411l-16.226-.446a21.362,21.362,0,0,1-9.194-2.375l-1.651-.855A24.943,24.943,0,0,0,64.9,356.068l-.65,23.6,2.788-1.493a12.127,12.127,0,0,1,9.041-.989l27.537,7.73a25.72,25.72,0,0,0,15.759-1.762l38.15-24.677A7.135,7.135,0,0,0,149.2,357.1Zm0,0" transform="translate(-45.971 -262.997)" fill="#fff"/>
    <path id="Caminho_6" data-name="Caminho 6" d="M.359,375.671l.967-35.12,13.868.382-.967,35.12Zm0,0" transform="translate(0 -254.895)" fill="#fff"/>
  </g>
</svg>
