<svg id="Componente_2_20" data-name="Componente 2 – 20" xmlns="http://www.w3.org/2000/svg" width="225.984" height="202.504" viewBox="0 0 225.984 202.504">
  <g id="imagem">
    <g id="Caminho_1" data-name="Caminho 1" fill="none">
      <path d="M0,0H225.984V202.5H0Z" stroke="none"/>
      <path d="M 0.9999847412109375 1 L 0.9999847412109375 201.5038146972656 L 224.9843597412109 201.5038146972656 L 224.9843597412109 1 L 0.9999847412109375 1 M -1.52587890625e-05 0 L 225.9843597412109 0 L 225.9843597412109 202.5038146972656 L -1.52587890625e-05 202.5038146972656 L -1.52587890625e-05 0 Z" stroke="none" fill="#fff"/>
    </g>
  </g>
  <g id="comercio-e-compras" transform="translate(56.625 53.002)">
    <g id="Grupo_4" data-name="Grupo 4" transform="translate(10.359 -0.002)">
      <g id="Grupo_3" data-name="Grupo 3" transform="translate(0 0)">
        <path id="Caminho_9" data-name="Caminho 9" d="M97.809,49.116a2.806,2.806,0,0,1,0-2.48l3.571-7.306a8.312,8.312,0,0,0-3.587-11.038L90.611,24.48a2.806,2.806,0,0,1-1.458-2.007l-1.4-8.01a8.313,8.313,0,0,0-9.39-6.822L70.306,8.78a2.806,2.806,0,0,1-2.359-.767L62.1,2.359a8.312,8.312,0,0,0-11.607,0L44.651,8.014a2.807,2.807,0,0,1-2.359.767L34.24,7.642a8.312,8.312,0,0,0-9.39,6.822l-1.4,8.009a2.807,2.807,0,0,1-1.458,2.007L14.8,28.292A8.313,8.313,0,0,0,11.218,39.33l3.571,7.306a2.806,2.806,0,0,1,0,2.48l-3.571,7.306A8.312,8.312,0,0,0,14.8,67.461l7.183,3.811a2.806,2.806,0,0,1,1.458,2.007l1.4,8.01A8.307,8.307,0,0,0,33.045,88.2a8.54,8.54,0,0,0,1.2-.085l8.052-1.139a2.805,2.805,0,0,1,2.359.767L50.5,93.392a8.312,8.312,0,0,0,11.606,0l5.845-5.654a2.809,2.809,0,0,1,2.359-.767l8.052,1.139a8.312,8.312,0,0,0,9.39-6.822l1.405-8.009a2.807,2.807,0,0,1,1.458-2.007l7.183-3.811a8.313,8.313,0,0,0,3.587-11.039ZM45.254,23.024A10.125,10.125,0,1,1,35.128,33.149,10.137,10.137,0,0,1,45.254,23.024ZM40.027,68.052a2.761,2.761,0,0,1-3.9-3.905L72.571,27.7A2.761,2.761,0,0,1,76.476,31.6Zm27.317,4.676A10.125,10.125,0,1,1,77.469,62.6,10.137,10.137,0,0,1,67.344,72.728Z" transform="translate(-10.359 0.002)" fill="#fff"/>
      </g>
    </g>
    <g id="Grupo_6" data-name="Grupo 6" transform="translate(62.742 58.001)">
      <g id="Grupo_5" data-name="Grupo 5" transform="translate(0)">
        <path id="Caminho_10" data-name="Caminho 10" d="M295.054,310.141a4.6,4.6,0,1,0,4.6,4.6A4.608,4.608,0,0,0,295.054,310.141Z" transform="translate(-290.452 -310.141)" fill="#fff"/>
      </g>
    </g>
    <g id="Grupo_8" data-name="Grupo 8" transform="translate(40.651 28.546)">
      <g id="Grupo_7" data-name="Grupo 7" transform="translate(0)">
        <path id="Caminho_11" data-name="Caminho 11" d="M176.935,152.646a4.6,4.6,0,1,0,4.6,4.6A4.607,4.607,0,0,0,176.935,152.646Z" transform="translate(-172.333 -152.646)" fill="#fff"/>
      </g>
    </g>
  </g>
</svg>
